<svg width="217" height="72" viewBox="0 0 217 72" fill="none" xmlns="http://www.w3.org/2000/svg">
<path d="M0 14C0 6.26801 6.26801 0 14 0H203C210.732 0 217 6.26801 217 14V58C217 65.732 210.732 72 203 72H14C6.26801 72 0 65.732 0 58V14Z" fill="#0075FF"/>
<path d="M54.9307 35.3115V40.3828C54.7314 40.623 54.4238 40.8838 54.0078 41.165C53.5918 41.4404 53.0557 41.6777 52.3994 41.877C51.7432 42.0762 50.9492 42.1758 50.0176 42.1758C49.1914 42.1758 48.4385 42.041 47.7588 41.7715C47.0791 41.4961 46.4932 41.0947 46.001 40.5674C45.5146 40.04 45.1396 39.3955 44.876 38.6338C44.6123 37.8662 44.4805 36.9902 44.4805 36.0059V35.2061C44.4805 34.2217 44.6064 33.3457 44.8584 32.5781C45.1162 31.8105 45.4824 31.1631 45.957 30.6357C46.4316 30.1084 46.9971 29.707 47.6533 29.4316C48.3096 29.1562 49.0391 29.0186 49.8418 29.0186C50.9551 29.0186 51.8691 29.2002 52.584 29.5635C53.2988 29.9209 53.8438 30.4189 54.2188 31.0576C54.5996 31.6904 54.834 32.417 54.9219 33.2373H52.3643C52.2998 32.8037 52.1768 32.4258 51.9951 32.1035C51.8135 31.7812 51.5527 31.5293 51.2129 31.3477C50.8789 31.166 50.4453 31.0752 49.9121 31.0752C49.4727 31.0752 49.0801 31.166 48.7344 31.3477C48.3945 31.5234 48.1074 31.7842 47.873 32.1299C47.6387 32.4756 47.46 32.9033 47.3369 33.4131C47.2139 33.9229 47.1523 34.5146 47.1523 35.1885V36.0059C47.1523 36.6738 47.2168 37.2656 47.3457 37.7812C47.4746 38.291 47.665 38.7217 47.917 39.0732C48.1748 39.4189 48.4912 39.6797 48.8662 39.8555C49.2412 40.0312 49.6777 40.1191 50.1758 40.1191C50.5918 40.1191 50.9375 40.084 51.2129 40.0137C51.4941 39.9434 51.7197 39.8584 51.8896 39.7588C52.0654 39.6533 52.2002 39.5537 52.2939 39.46V37.1924H49.8857V35.3115H54.9307ZM61.2764 42.1758C60.5381 42.1758 59.876 42.0586 59.29 41.8242C58.7041 41.584 58.2061 41.2529 57.7959 40.8311C57.3916 40.4092 57.0811 39.9199 56.8643 39.3633C56.6475 38.8008 56.5391 38.2031 56.5391 37.5703V37.2188C56.5391 36.498 56.6416 35.8389 56.8467 35.2412C57.0518 34.6436 57.3447 34.125 57.7256 33.6855C58.1123 33.2461 58.5811 32.9092 59.1318 32.6748C59.6826 32.4346 60.3037 32.3145 60.9951 32.3145C61.6689 32.3145 62.2666 32.4258 62.7881 32.6484C63.3096 32.8711 63.7461 33.1875 64.0977 33.5977C64.4551 34.0078 64.7246 34.5 64.9062 35.0742C65.0879 35.6426 65.1787 36.2754 65.1787 36.9727V38.0273H57.6201V36.3398H62.6914V36.1465C62.6914 35.7949 62.627 35.4814 62.498 35.2061C62.375 34.9248 62.1875 34.7021 61.9355 34.5381C61.6836 34.374 61.3613 34.292 60.9688 34.292C60.6348 34.292 60.3477 34.3652 60.1074 34.5117C59.8672 34.6582 59.6709 34.8633 59.5186 35.127C59.3721 35.3906 59.2607 35.7012 59.1846 36.0586C59.1143 36.4102 59.0791 36.7969 59.0791 37.2188V37.5703C59.0791 37.9512 59.1318 38.3027 59.2373 38.625C59.3486 38.9473 59.5039 39.2256 59.7031 39.46C59.9082 39.6943 60.1543 39.876 60.4414 40.0049C60.7344 40.1338 61.0654 40.1982 61.4346 40.1982C61.8916 40.1982 62.3164 40.1104 62.709 39.9346C63.1074 39.7529 63.4502 39.4805 63.7373 39.1172L64.9678 40.4531C64.7686 40.7402 64.4961 41.0156 64.1504 41.2793C63.8105 41.543 63.4004 41.7598 62.9199 41.9297C62.4395 42.0938 61.8916 42.1758 61.2764 42.1758ZM71.2783 32.4902V34.2832H65.7412V32.4902H71.2783ZM67.1123 30.1436H69.6436V39.1348C69.6436 39.4102 69.6787 39.6211 69.749 39.7676C69.8252 39.9141 69.9365 40.0166 70.083 40.0752C70.2295 40.1279 70.4141 40.1543 70.6367 40.1543C70.7949 40.1543 70.9355 40.1484 71.0586 40.1367C71.1875 40.1191 71.2959 40.1016 71.3838 40.084L71.3926 41.9473C71.1758 42.0176 70.9414 42.0732 70.6895 42.1143C70.4375 42.1553 70.1592 42.1758 69.8545 42.1758C69.2979 42.1758 68.8115 42.085 68.3955 41.9033C67.9854 41.7158 67.6689 41.417 67.4463 41.0068C67.2236 40.5967 67.1123 40.0576 67.1123 39.3896V30.1436ZM82.335 39.8555V35.6191C82.335 35.3145 82.2852 35.0537 82.1855 34.8369C82.0859 34.6143 81.9307 34.4414 81.7197 34.3184C81.5146 34.1953 81.248 34.1338 80.9199 34.1338C80.6387 34.1338 80.3955 34.1836 80.1904 34.2832C79.9854 34.377 79.8271 34.5146 79.7158 34.6963C79.6045 34.8721 79.5488 35.0801 79.5488 35.3203H77.0176C77.0176 34.916 77.1113 34.5322 77.2988 34.1689C77.4863 33.8057 77.7588 33.4863 78.1162 33.2109C78.4736 32.9297 78.8984 32.71 79.3906 32.5518C79.8887 32.3936 80.4453 32.3145 81.0605 32.3145C81.7988 32.3145 82.4551 32.4375 83.0293 32.6836C83.6035 32.9297 84.0547 33.2988 84.3828 33.791C84.7168 34.2832 84.8838 34.8984 84.8838 35.6367V39.7061C84.8838 40.2275 84.916 40.6553 84.9805 40.9893C85.0449 41.3174 85.1387 41.6045 85.2617 41.8506V42H82.7041C82.5811 41.7422 82.4873 41.4199 82.4229 41.0332C82.3643 40.6406 82.335 40.248 82.335 39.8555ZM82.6689 36.208L82.6865 37.6406H81.2715C80.9375 37.6406 80.6475 37.6787 80.4014 37.7549C80.1553 37.8311 79.9531 37.9395 79.7949 38.0801C79.6367 38.2148 79.5195 38.373 79.4434 38.5547C79.373 38.7363 79.3379 38.9355 79.3379 39.1523C79.3379 39.3691 79.3877 39.5654 79.4873 39.7412C79.5869 39.9111 79.7305 40.0459 79.918 40.1455C80.1055 40.2393 80.3252 40.2861 80.5771 40.2861C80.958 40.2861 81.2891 40.21 81.5703 40.0576C81.8516 39.9053 82.0684 39.7178 82.2207 39.4951C82.3789 39.2725 82.4609 39.0615 82.4668 38.8623L83.1348 39.9346C83.041 40.1748 82.9121 40.4238 82.748 40.6816C82.5898 40.9395 82.3877 41.1826 82.1416 41.4111C81.8955 41.6338 81.5996 41.8184 81.2539 41.9648C80.9082 42.1055 80.498 42.1758 80.0234 42.1758C79.4199 42.1758 78.8721 42.0557 78.3799 41.8154C77.8936 41.5693 77.5068 41.2324 77.2197 40.8047C76.9385 40.3711 76.7979 39.8789 76.7979 39.3281C76.7979 38.8301 76.8916 38.3877 77.0791 38.001C77.2666 37.6143 77.542 37.2891 77.9053 37.0254C78.2744 36.7559 78.7344 36.5537 79.2852 36.4189C79.8359 36.2783 80.4746 36.208 81.2012 36.208H82.6689ZM94.543 42H91.9941V31.6465C91.9941 30.9258 92.1348 30.3193 92.416 29.8271C92.7031 29.3291 93.1045 28.9541 93.6201 28.7021C94.1416 28.4443 94.7598 28.3154 95.4746 28.3154C95.709 28.3154 95.9346 28.333 96.1514 28.3682C96.3682 28.3975 96.5791 28.4355 96.7842 28.4824L96.7578 30.3896C96.6465 30.3604 96.5293 30.3398 96.4062 30.3281C96.2832 30.3164 96.1396 30.3105 95.9756 30.3105C95.6709 30.3105 95.4102 30.3633 95.1934 30.4688C94.9824 30.5684 94.8213 30.7178 94.71 30.917C94.5986 31.1162 94.543 31.3594 94.543 31.6465V42ZM96.4414 32.4902V34.2832H90.5791V32.4902H96.4414ZM100.3 34.5645V42H97.7686V32.4902H100.15L100.3 34.5645ZM103.165 32.4287L103.121 34.7754C102.998 34.7578 102.849 34.7432 102.673 34.7314C102.503 34.7139 102.348 34.7051 102.207 34.7051C101.85 34.7051 101.539 34.752 101.275 34.8457C101.018 34.9336 100.801 35.0654 100.625 35.2412C100.455 35.417 100.326 35.6309 100.238 35.8828C100.156 36.1348 100.109 36.4219 100.098 36.7441L99.5879 36.5859C99.5879 35.9707 99.6494 35.4053 99.7725 34.8896C99.8955 34.3682 100.074 33.9141 100.309 33.5273C100.549 33.1406 100.842 32.8418 101.188 32.6309C101.533 32.4199 101.929 32.3145 102.374 32.3145C102.515 32.3145 102.658 32.3262 102.805 32.3496C102.951 32.3672 103.071 32.3936 103.165 32.4287ZM108.562 42.1758C107.823 42.1758 107.161 42.0586 106.575 41.8242C105.989 41.584 105.491 41.2529 105.081 40.8311C104.677 40.4092 104.366 39.9199 104.149 39.3633C103.933 38.8008 103.824 38.2031 103.824 37.5703V37.2188C103.824 36.498 103.927 35.8389 104.132 35.2412C104.337 34.6436 104.63 34.125 105.011 33.6855C105.397 33.2461 105.866 32.9092 106.417 32.6748C106.968 32.4346 107.589 32.3145 108.28 32.3145C108.954 32.3145 109.552 32.4258 110.073 32.6484C110.595 32.8711 111.031 33.1875 111.383 33.5977C111.74 34.0078 112.01 34.5 112.191 35.0742C112.373 35.6426 112.464 36.2754 112.464 36.9727V38.0273H104.905V36.3398H109.977V36.1465C109.977 35.7949 109.912 35.4814 109.783 35.2061C109.66 34.9248 109.473 34.7021 109.221 34.5381C108.969 34.374 108.646 34.292 108.254 34.292C107.92 34.292 107.633 34.3652 107.393 34.5117C107.152 34.6582 106.956 34.8633 106.804 35.127C106.657 35.3906 106.546 35.7012 106.47 36.0586C106.399 36.4102 106.364 36.7969 106.364 37.2188V37.5703C106.364 37.9512 106.417 38.3027 106.522 38.625C106.634 38.9473 106.789 39.2256 106.988 39.46C107.193 39.6943 107.439 39.876 107.727 40.0049C108.02 40.1338 108.351 40.1982 108.72 40.1982C109.177 40.1982 109.602 40.1104 109.994 39.9346C110.393 39.7529 110.735 39.4805 111.022 39.1172L112.253 40.4531C112.054 40.7402 111.781 41.0156 111.436 41.2793C111.096 41.543 110.686 41.7598 110.205 41.9297C109.725 42.0938 109.177 42.1758 108.562 42.1758ZM118.282 42.1758C117.544 42.1758 116.882 42.0586 116.296 41.8242C115.71 41.584 115.212 41.2529 114.802 40.8311C114.397 40.4092 114.087 39.9199 113.87 39.3633C113.653 38.8008 113.545 38.2031 113.545 37.5703V37.2188C113.545 36.498 113.647 35.8389 113.853 35.2412C114.058 34.6436 114.351 34.125 114.731 33.6855C115.118 33.2461 115.587 32.9092 116.138 32.6748C116.688 32.4346 117.31 32.3145 118.001 32.3145C118.675 32.3145 119.272 32.4258 119.794 32.6484C120.315 32.8711 120.752 33.1875 121.104 33.5977C121.461 34.0078 121.73 34.5 121.912 35.0742C122.094 35.6426 122.185 36.2754 122.185 36.9727V38.0273H114.626V36.3398H119.697V36.1465C119.697 35.7949 119.633 35.4814 119.504 35.2061C119.381 34.9248 119.193 34.7021 118.941 34.5381C118.689 34.374 118.367 34.292 117.975 34.292C117.641 34.292 117.354 34.3652 117.113 34.5117C116.873 34.6582 116.677 34.8633 116.524 35.127C116.378 35.3906 116.267 35.7012 116.19 36.0586C116.12 36.4102 116.085 36.7969 116.085 37.2188V37.5703C116.085 37.9512 116.138 38.3027 116.243 38.625C116.354 38.9473 116.51 39.2256 116.709 39.46C116.914 39.6943 117.16 39.876 117.447 40.0049C117.74 40.1338 118.071 40.1982 118.44 40.1982C118.897 40.1982 119.322 40.1104 119.715 39.9346C120.113 39.7529 120.456 39.4805 120.743 39.1172L121.974 40.4531C121.774 40.7402 121.502 41.0156 121.156 41.2793C120.816 41.543 120.406 41.7598 119.926 41.9297C119.445 42.0938 118.897 42.1758 118.282 42.1758ZM133.725 45.6562V34.4326L134.05 32.4902H136.273V45.6562H133.725ZM127.713 37.3418V37.1572C127.713 36.4307 127.792 35.7715 127.95 35.1797C128.114 34.582 128.354 34.0723 128.671 33.6504C128.987 33.2227 129.374 32.8945 129.831 32.666C130.294 32.4316 130.827 32.3145 131.431 32.3145C132.011 32.3145 132.512 32.4316 132.934 32.666C133.355 32.9004 133.71 33.2314 133.997 33.6592C134.29 34.0869 134.524 34.5908 134.7 35.1709C134.876 35.751 135.011 36.3867 135.104 37.0781V37.4824C135.017 38.1445 134.882 38.7598 134.7 39.3281C134.524 39.8965 134.29 40.3945 133.997 40.8223C133.71 41.25 133.353 41.584 132.925 41.8242C132.503 42.0586 131.999 42.1758 131.413 42.1758C130.821 42.1758 130.294 42.0557 129.831 41.8154C129.374 41.5693 128.987 41.2295 128.671 40.7959C128.354 40.3623 128.114 39.8525 127.95 39.2666C127.792 38.6748 127.713 38.0332 127.713 37.3418ZM130.244 37.1572V37.3418C130.244 37.7344 130.276 38.1035 130.341 38.4492C130.405 38.7891 130.508 39.0908 130.648 39.3545C130.795 39.6182 130.982 39.8262 131.211 39.9785C131.439 40.125 131.721 40.1982 132.055 40.1982C132.518 40.1982 132.89 40.0986 133.171 39.8994C133.458 39.6943 133.669 39.416 133.804 39.0645C133.944 38.7129 134.026 38.3115 134.05 37.8604V36.709C134.032 36.3398 133.982 36.0088 133.9 35.7158C133.824 35.417 133.707 35.1621 133.549 34.9512C133.396 34.7402 133.197 34.5791 132.951 34.4678C132.711 34.3506 132.418 34.292 132.072 34.292C131.744 34.292 131.463 34.3652 131.229 34.5117C130.994 34.6582 130.804 34.8633 130.657 35.127C130.517 35.3848 130.411 35.6865 130.341 36.0322C130.276 36.3779 130.244 36.7529 130.244 37.1572ZM143.894 39.7236V32.4902H146.425V42H144.043L143.894 39.7236ZM144.175 37.7725L144.922 37.7549C144.922 38.3877 144.849 38.9766 144.702 39.5215C144.556 40.0605 144.336 40.5293 144.043 40.9277C143.75 41.3203 143.381 41.6279 142.936 41.8506C142.49 42.0674 141.966 42.1758 141.362 42.1758C140.899 42.1758 140.472 42.1113 140.079 41.9824C139.692 41.8477 139.358 41.6396 139.077 41.3584C138.802 41.0713 138.585 40.7051 138.427 40.2598C138.274 39.8086 138.198 39.2666 138.198 38.6338V32.4902H140.729V38.6514C140.729 38.9326 140.762 39.1699 140.826 39.3633C140.896 39.5566 140.993 39.7148 141.116 39.8379C141.239 39.9609 141.383 40.0488 141.547 40.1016C141.717 40.1543 141.904 40.1807 142.109 40.1807C142.631 40.1807 143.041 40.0752 143.34 39.8643C143.645 39.6533 143.858 39.3662 143.981 39.0029C144.11 38.6338 144.175 38.2236 144.175 37.7725ZM147.954 37.3418V37.1572C147.954 36.46 148.054 35.8184 148.253 35.2324C148.452 34.6406 148.742 34.1279 149.123 33.6943C149.504 33.2607 149.973 32.9238 150.529 32.6836C151.086 32.4375 151.725 32.3145 152.445 32.3145C153.166 32.3145 153.808 32.4375 154.37 32.6836C154.933 32.9238 155.404 33.2607 155.785 33.6943C156.172 34.1279 156.465 34.6406 156.664 35.2324C156.863 35.8184 156.963 36.46 156.963 37.1572V37.3418C156.963 38.0332 156.863 38.6748 156.664 39.2666C156.465 39.8525 156.172 40.3652 155.785 40.8047C155.404 41.2383 154.936 41.5752 154.379 41.8154C153.822 42.0557 153.184 42.1758 152.463 42.1758C151.742 42.1758 151.101 42.0557 150.538 41.8154C149.981 41.5752 149.51 41.2383 149.123 40.8047C148.742 40.3652 148.452 39.8525 148.253 39.2666C148.054 38.6748 147.954 38.0332 147.954 37.3418ZM150.485 37.1572V37.3418C150.485 37.7402 150.521 38.1123 150.591 38.458C150.661 38.8037 150.772 39.1084 150.925 39.3721C151.083 39.6299 151.288 39.832 151.54 39.9785C151.792 40.125 152.1 40.1982 152.463 40.1982C152.814 40.1982 153.116 40.125 153.368 39.9785C153.62 39.832 153.822 39.6299 153.975 39.3721C154.127 39.1084 154.238 38.8037 154.309 38.458C154.385 38.1123 154.423 37.7402 154.423 37.3418V37.1572C154.423 36.7705 154.385 36.4072 154.309 36.0674C154.238 35.7217 154.124 35.417 153.966 35.1533C153.813 34.8838 153.611 34.6729 153.359 34.5205C153.107 34.3682 152.803 34.292 152.445 34.292C152.088 34.292 151.783 34.3682 151.531 34.5205C151.285 34.6729 151.083 34.8838 150.925 35.1533C150.772 35.417 150.661 35.7217 150.591 36.0674C150.521 36.4072 150.485 36.7705 150.485 37.1572ZM163.177 32.4902V34.2832H157.64V32.4902H163.177ZM159.011 30.1436H161.542V39.1348C161.542 39.4102 161.577 39.6211 161.647 39.7676C161.724 39.9141 161.835 40.0166 161.981 40.0752C162.128 40.1279 162.312 40.1543 162.535 40.1543C162.693 40.1543 162.834 40.1484 162.957 40.1367C163.086 40.1191 163.194 40.1016 163.282 40.084L163.291 41.9473C163.074 42.0176 162.84 42.0732 162.588 42.1143C162.336 42.1553 162.058 42.1758 161.753 42.1758C161.196 42.1758 160.71 42.085 160.294 41.9033C159.884 41.7158 159.567 41.417 159.345 41.0068C159.122 40.5967 159.011 40.0576 159.011 39.3896V30.1436ZM168.995 42.1758C168.257 42.1758 167.595 42.0586 167.009 41.8242C166.423 41.584 165.925 41.2529 165.515 40.8311C165.11 40.4092 164.8 39.9199 164.583 39.3633C164.366 38.8008 164.258 38.2031 164.258 37.5703V37.2188C164.258 36.498 164.36 35.8389 164.565 35.2412C164.771 34.6436 165.063 34.125 165.444 33.6855C165.831 33.2461 166.3 32.9092 166.851 32.6748C167.401 32.4346 168.022 32.3145 168.714 32.3145C169.388 32.3145 169.985 32.4258 170.507 32.6484C171.028 32.8711 171.465 33.1875 171.816 33.5977C172.174 34.0078 172.443 34.5 172.625 35.0742C172.807 35.6426 172.897 36.2754 172.897 36.9727V38.0273H165.339V36.3398H170.41V36.1465C170.41 35.7949 170.346 35.4814 170.217 35.2061C170.094 34.9248 169.906 34.7021 169.654 34.5381C169.402 34.374 169.08 34.292 168.688 34.292C168.354 34.292 168.066 34.3652 167.826 34.5117C167.586 34.6582 167.39 34.8633 167.237 35.127C167.091 35.3906 166.979 35.7012 166.903 36.0586C166.833 36.4102 166.798 36.7969 166.798 37.2188V37.5703C166.798 37.9512 166.851 38.3027 166.956 38.625C167.067 38.9473 167.223 39.2256 167.422 39.46C167.627 39.6943 167.873 39.876 168.16 40.0049C168.453 40.1338 168.784 40.1982 169.153 40.1982C169.61 40.1982 170.035 40.1104 170.428 39.9346C170.826 39.7529 171.169 39.4805 171.456 39.1172L172.687 40.4531C172.487 40.7402 172.215 41.0156 171.869 41.2793C171.529 41.543 171.119 41.7598 170.639 41.9297C170.158 42.0938 169.61 42.1758 168.995 42.1758Z" fill="white"/>
</svg>
