<svg width="174" height="54" viewBox="0 0 174 54" fill="none" xmlns="http://www.w3.org/2000/svg">
<path d="M0 14C0 6.26801 6.26801 0 14 0H160C167.732 0 174 6.26801 174 14V40C174 47.732 167.732 54 160 54H14C6.26801 54 0 47.732 0 40V14Z" fill="#0075FF"/>
<path d="M39.8281 25.3359V29.5C39.6875 29.7083 39.4635 29.9427 39.1562 30.2031C38.849 30.4583 38.4245 30.6823 37.8828 30.875C37.3464 31.0625 36.6536 31.1562 35.8047 31.1562C35.112 31.1562 34.474 31.0365 33.8906 30.7969C33.3125 30.5521 32.8099 30.1979 32.3828 29.7344C31.9609 29.2656 31.6328 28.6979 31.3984 28.0312C31.1693 27.3594 31.0547 26.599 31.0547 25.75V24.8672C31.0547 24.0182 31.1536 23.2604 31.3516 22.5938C31.5547 21.9271 31.8516 21.362 32.2422 20.8984C32.6328 20.4297 33.112 20.0755 33.6797 19.8359C34.2474 19.5911 34.8984 19.4688 35.6328 19.4688C36.5026 19.4688 37.2292 19.6198 37.8125 19.9219C38.401 20.2188 38.8594 20.6302 39.1875 21.1562C39.5208 21.6823 39.7344 22.2812 39.8281 22.9531H38.3203C38.2526 22.5417 38.1172 22.1667 37.9141 21.8281C37.7161 21.4896 37.4323 21.2188 37.0625 21.0156C36.6927 20.8073 36.2161 20.7031 35.6328 20.7031C35.1068 20.7031 34.651 20.7995 34.2656 20.9922C33.8802 21.1849 33.5625 21.4609 33.3125 21.8203C33.0625 22.1797 32.875 22.6146 32.75 23.125C32.6302 23.6354 32.5703 24.2109 32.5703 24.8516V25.75C32.5703 26.4062 32.6458 26.9922 32.7969 27.5078C32.9531 28.0234 33.1745 28.4635 33.4609 28.8281C33.7474 29.1875 34.0885 29.4609 34.4844 29.6484C34.8854 29.8359 35.3281 29.9297 35.8125 29.9297C36.349 29.9297 36.7839 29.8854 37.1172 29.7969C37.4505 29.7031 37.7109 29.5938 37.8984 29.4688C38.0859 29.3385 38.2292 29.2161 38.3281 29.1016V26.5547H35.6953V25.3359H39.8281ZM45.6172 31.1562C45.0286 31.1562 44.4948 31.0573 44.0156 30.8594C43.5417 30.6562 43.1328 30.3724 42.7891 30.0078C42.4505 29.6432 42.1901 29.2109 42.0078 28.7109C41.8255 28.2109 41.7344 27.6641 41.7344 27.0703V26.7422C41.7344 26.0547 41.8359 25.4427 42.0391 24.9062C42.2422 24.3646 42.5182 23.9062 42.8672 23.5312C43.2161 23.1562 43.612 22.8724 44.0547 22.6797C44.4974 22.487 44.9557 22.3906 45.4297 22.3906C46.0339 22.3906 46.5547 22.4948 46.9922 22.7031C47.4349 22.9115 47.7969 23.2031 48.0781 23.5781C48.3594 23.9479 48.5677 24.3854 48.7031 24.8906C48.8385 25.3906 48.9062 25.9375 48.9062 26.5312V27.1797H42.5938V26H47.4609V25.8906C47.4401 25.5156 47.362 25.151 47.2266 24.7969C47.0964 24.4427 46.888 24.151 46.6016 23.9219C46.3151 23.6927 45.9245 23.5781 45.4297 23.5781C45.1016 23.5781 44.7995 23.6484 44.5234 23.7891C44.2474 23.9245 44.0104 24.1276 43.8125 24.3984C43.6146 24.6693 43.4609 25 43.3516 25.3906C43.2422 25.7812 43.1875 26.2318 43.1875 26.7422V27.0703C43.1875 27.4714 43.2422 27.849 43.3516 28.2031C43.4661 28.5521 43.6302 28.8594 43.8438 29.125C44.0625 29.3906 44.3255 29.599 44.6328 29.75C44.9453 29.901 45.2995 29.9766 45.6953 29.9766C46.2057 29.9766 46.638 29.8724 46.9922 29.6641C47.3464 29.4557 47.6562 29.1771 47.9219 28.8281L48.7969 29.5234C48.6146 29.7995 48.3828 30.0625 48.1016 30.3125C47.8203 30.5625 47.474 30.7656 47.0625 30.9219C46.6562 31.0781 46.1745 31.1562 45.6172 31.1562ZM54.1328 22.5469V23.6562H49.5625V22.5469H54.1328ZM51.1094 20.4922H52.5547V28.9062C52.5547 29.1927 52.599 29.4089 52.6875 29.5547C52.776 29.7005 52.8906 29.7969 53.0312 29.8438C53.1719 29.8906 53.3229 29.9141 53.4844 29.9141C53.6042 29.9141 53.7292 29.9036 53.8594 29.8828C53.9948 29.8568 54.0964 29.8359 54.1641 29.8203L54.1719 31C54.0573 31.0365 53.9062 31.0703 53.7188 31.1016C53.5365 31.138 53.3151 31.1562 53.0547 31.1562C52.7005 31.1562 52.375 31.0859 52.0781 30.9453C51.7812 30.8047 51.5443 30.5703 51.3672 30.2422C51.1953 29.9089 51.1094 29.4609 51.1094 28.8984V20.4922ZM64.7812 29.5547V25.2031C64.7812 24.8698 64.7135 24.5807 64.5781 24.3359C64.4479 24.0859 64.25 23.8932 63.9844 23.7578C63.7188 23.6224 63.3906 23.5547 63 23.5547C62.6354 23.5547 62.3151 23.6172 62.0391 23.7422C61.7682 23.8672 61.5547 24.0312 61.3984 24.2344C61.2474 24.4375 61.1719 24.6562 61.1719 24.8906H59.7266C59.7266 24.5885 59.8047 24.2891 59.9609 23.9922C60.1172 23.6953 60.3411 23.4271 60.6328 23.1875C60.9297 22.9427 61.2839 22.75 61.6953 22.6094C62.112 22.4635 62.5755 22.3906 63.0859 22.3906C63.7005 22.3906 64.2422 22.4948 64.7109 22.7031C65.1849 22.9115 65.5547 23.2266 65.8203 23.6484C66.0911 24.0651 66.2266 24.5885 66.2266 25.2188V29.1562C66.2266 29.4375 66.25 29.737 66.2969 30.0547C66.349 30.3724 66.4245 30.6458 66.5234 30.875V31H65.0156C64.9427 30.8333 64.8854 30.612 64.8438 30.3359C64.8021 30.0547 64.7812 29.7943 64.7812 29.5547ZM65.0312 25.875L65.0469 26.8906H63.5859C63.1745 26.8906 62.8073 26.9245 62.4844 26.9922C62.1615 27.0547 61.8906 27.151 61.6719 27.2812C61.4531 27.4115 61.2865 27.5755 61.1719 27.7734C61.0573 27.9661 61 28.1927 61 28.4531C61 28.7188 61.0599 28.9609 61.1797 29.1797C61.2995 29.3984 61.4792 29.5729 61.7188 29.7031C61.9635 29.8281 62.263 29.8906 62.6172 29.8906C63.0599 29.8906 63.4505 29.7969 63.7891 29.6094C64.1276 29.4219 64.3958 29.1927 64.5938 28.9219C64.7969 28.651 64.9062 28.388 64.9219 28.1328L65.5391 28.8281C65.5026 29.0469 65.4036 29.2891 65.2422 29.5547C65.0807 29.8203 64.8646 30.0755 64.5938 30.3203C64.3281 30.5599 64.0104 30.7604 63.6406 30.9219C63.276 31.0781 62.8646 31.1562 62.4062 31.1562C61.8333 31.1562 61.3307 31.0443 60.8984 30.8203C60.4714 30.5964 60.138 30.2969 59.8984 29.9219C59.6641 29.5417 59.5469 29.1172 59.5469 28.6484C59.5469 28.1953 59.6354 27.7969 59.8125 27.4531C59.9896 27.1042 60.2448 26.8151 60.5781 26.5859C60.9115 26.3516 61.3125 26.1745 61.7812 26.0547C62.25 25.9349 62.7734 25.875 63.3516 25.875H65.0312ZM74.625 31H73.1797V21.6562C73.1797 21.0469 73.2891 20.5339 73.5078 20.1172C73.7318 19.6953 74.0521 19.3776 74.4688 19.1641C74.8854 18.9453 75.3802 18.8359 75.9531 18.8359C76.1198 18.8359 76.2865 18.8464 76.4531 18.8672C76.625 18.888 76.7917 18.9193 76.9531 18.9609L76.875 20.1406C76.7656 20.1146 76.6406 20.0964 76.5 20.0859C76.3646 20.0755 76.2292 20.0703 76.0938 20.0703C75.7865 20.0703 75.5208 20.1328 75.2969 20.2578C75.0781 20.3776 74.9115 20.5547 74.7969 20.7891C74.6823 21.0234 74.625 21.3125 74.625 21.6562V31ZM76.4219 22.5469V23.6562H71.8438V22.5469H76.4219ZM79.4766 23.875V31H78.0312V22.5469H79.4375L79.4766 23.875ZM82.1172 22.5L82.1094 23.8438C81.9896 23.8177 81.875 23.8021 81.7656 23.7969C81.6615 23.7865 81.5417 23.7812 81.4062 23.7812C81.0729 23.7812 80.7786 23.8333 80.5234 23.9375C80.2682 24.0417 80.0521 24.1875 79.875 24.375C79.6979 24.5625 79.5573 24.7865 79.4531 25.0469C79.3542 25.3021 79.2891 25.5833 79.2578 25.8906L78.8516 26.125C78.8516 25.6146 78.901 25.1354 79 24.6875C79.1042 24.2396 79.263 23.8438 79.4766 23.5C79.6901 23.151 79.9609 22.8802 80.2891 22.6875C80.6224 22.4896 81.0182 22.3906 81.4766 22.3906C81.5807 22.3906 81.7005 22.4036 81.8359 22.4297C81.9714 22.4505 82.0651 22.474 82.1172 22.5ZM86.8047 31.1562C86.2161 31.1562 85.6823 31.0573 85.2031 30.8594C84.7292 30.6562 84.3203 30.3724 83.9766 30.0078C83.638 29.6432 83.3776 29.2109 83.1953 28.7109C83.013 28.2109 82.9219 27.6641 82.9219 27.0703V26.7422C82.9219 26.0547 83.0234 25.4427 83.2266 24.9062C83.4297 24.3646 83.7057 23.9062 84.0547 23.5312C84.4036 23.1562 84.7995 22.8724 85.2422 22.6797C85.6849 22.487 86.1432 22.3906 86.6172 22.3906C87.2214 22.3906 87.7422 22.4948 88.1797 22.7031C88.6224 22.9115 88.9844 23.2031 89.2656 23.5781C89.5469 23.9479 89.7552 24.3854 89.8906 24.8906C90.026 25.3906 90.0938 25.9375 90.0938 26.5312V27.1797H83.7812V26H88.6484V25.8906C88.6276 25.5156 88.5495 25.151 88.4141 24.7969C88.2839 24.4427 88.0755 24.151 87.7891 23.9219C87.5026 23.6927 87.112 23.5781 86.6172 23.5781C86.2891 23.5781 85.987 23.6484 85.7109 23.7891C85.4349 23.9245 85.1979 24.1276 85 24.3984C84.8021 24.6693 84.6484 25 84.5391 25.3906C84.4297 25.7812 84.375 26.2318 84.375 26.7422V27.0703C84.375 27.4714 84.4297 27.849 84.5391 28.2031C84.6536 28.5521 84.8177 28.8594 85.0312 29.125C85.25 29.3906 85.513 29.599 85.8203 29.75C86.1328 29.901 86.487 29.9766 86.8828 29.9766C87.3932 29.9766 87.8255 29.8724 88.1797 29.6641C88.5339 29.4557 88.8438 29.1771 89.1094 28.8281L89.9844 29.5234C89.8021 29.7995 89.5703 30.0625 89.2891 30.3125C89.0078 30.5625 88.6615 30.7656 88.25 30.9219C87.8438 31.0781 87.362 31.1562 86.8047 31.1562ZM95.2891 31.1562C94.7005 31.1562 94.1667 31.0573 93.6875 30.8594C93.2135 30.6562 92.8047 30.3724 92.4609 30.0078C92.1224 29.6432 91.862 29.2109 91.6797 28.7109C91.4974 28.2109 91.4062 27.6641 91.4062 27.0703V26.7422C91.4062 26.0547 91.5078 25.4427 91.7109 24.9062C91.9141 24.3646 92.1901 23.9062 92.5391 23.5312C92.888 23.1562 93.2839 22.8724 93.7266 22.6797C94.1693 22.487 94.6276 22.3906 95.1016 22.3906C95.7057 22.3906 96.2266 22.4948 96.6641 22.7031C97.1068 22.9115 97.4688 23.2031 97.75 23.5781C98.0312 23.9479 98.2396 24.3854 98.375 24.8906C98.5104 25.3906 98.5781 25.9375 98.5781 26.5312V27.1797H92.2656V26H97.1328V25.8906C97.112 25.5156 97.0339 25.151 96.8984 24.7969C96.7682 24.4427 96.5599 24.151 96.2734 23.9219C95.987 23.6927 95.5964 23.5781 95.1016 23.5781C94.7734 23.5781 94.4714 23.6484 94.1953 23.7891C93.9193 23.9245 93.6823 24.1276 93.4844 24.3984C93.2865 24.6693 93.1328 25 93.0234 25.3906C92.9141 25.7812 92.8594 26.2318 92.8594 26.7422V27.0703C92.8594 27.4714 92.9141 27.849 93.0234 28.2031C93.138 28.5521 93.3021 28.8594 93.5156 29.125C93.7344 29.3906 93.9974 29.599 94.3047 29.75C94.6172 29.901 94.9714 29.9766 95.3672 29.9766C95.8776 29.9766 96.3099 29.8724 96.6641 29.6641C97.0182 29.4557 97.3281 29.1771 97.5938 28.8281L98.4688 29.5234C98.2865 29.7995 98.0547 30.0625 97.7734 30.3125C97.4922 30.5625 97.1458 30.7656 96.7344 30.9219C96.3281 31.0781 95.8464 31.1562 95.2891 31.1562ZM109.555 34.25V24.1719L109.68 22.5469H111.008V34.25H109.555ZM103.875 26.8672V26.7031C103.875 26.0573 103.951 25.4714 104.102 24.9453C104.253 24.4141 104.474 23.9583 104.766 23.5781C105.057 23.1979 105.409 22.9062 105.82 22.7031C106.237 22.4948 106.711 22.3906 107.242 22.3906C107.773 22.3906 108.24 22.4844 108.641 22.6719C109.047 22.8542 109.391 23.1224 109.672 23.4766C109.958 23.8255 110.185 24.2474 110.352 24.7422C110.518 25.237 110.633 25.7969 110.695 26.4219V27.1406C110.638 27.7604 110.526 28.3177 110.359 28.8125C110.193 29.3073 109.966 29.7292 109.68 30.0781C109.398 30.4271 109.052 30.6953 108.641 30.8828C108.234 31.0651 107.763 31.1562 107.227 31.1562C106.706 31.1562 106.237 31.0495 105.82 30.8359C105.409 30.6224 105.057 30.3229 104.766 29.9375C104.479 29.5521 104.258 29.099 104.102 28.5781C103.951 28.0521 103.875 27.4818 103.875 26.8672ZM105.328 26.7031V26.8672C105.328 27.2891 105.372 27.6875 105.461 28.0625C105.549 28.4323 105.685 28.7604 105.867 29.0469C106.055 29.3333 106.289 29.5599 106.57 29.7266C106.857 29.888 107.195 29.9688 107.586 29.9688C108.065 29.9688 108.464 29.8646 108.781 29.6562C109.104 29.4479 109.362 29.1745 109.555 28.8359C109.747 28.4922 109.896 28.125 110 27.7344V25.8516C109.943 25.5651 109.852 25.2865 109.727 25.0156C109.607 24.7448 109.451 24.5026 109.258 24.2891C109.065 24.0703 108.831 23.8984 108.555 23.7734C108.284 23.6432 107.966 23.5781 107.602 23.5781C107.206 23.5781 106.865 23.6615 106.578 23.8281C106.292 23.9948 106.055 24.224 105.867 24.5156C105.685 24.8021 105.549 25.1328 105.461 25.5078C105.372 25.8828 105.328 26.2812 105.328 26.7031ZM118.5 29.0469V22.5469H119.953V31H118.57L118.5 29.0469ZM118.773 27.2656L119.375 27.25C119.375 27.8125 119.315 28.3333 119.195 28.8125C119.081 29.2865 118.893 29.6979 118.633 30.0469C118.372 30.3958 118.031 30.6693 117.609 30.8672C117.188 31.0599 116.674 31.1562 116.07 31.1562C115.659 31.1562 115.281 31.0964 114.938 30.9766C114.599 30.8568 114.307 30.6719 114.062 30.4219C113.818 30.1719 113.628 29.8464 113.492 29.4453C113.362 29.0443 113.297 28.5625 113.297 28V22.5469H114.742V28.0156C114.742 28.3958 114.784 28.7109 114.867 28.9609C114.956 29.2057 115.073 29.401 115.219 29.5469C115.37 29.6875 115.536 29.7865 115.719 29.8438C115.906 29.901 116.099 29.9297 116.297 29.9297C116.911 29.9297 117.398 29.8125 117.758 29.5781C118.117 29.3385 118.375 29.0182 118.531 28.6172C118.693 28.2109 118.773 27.7604 118.773 27.2656ZM121.773 26.8672V26.6875C121.773 26.0781 121.862 25.513 122.039 24.9922C122.216 24.4661 122.471 24.0104 122.805 23.625C123.138 23.2344 123.542 22.9323 124.016 22.7188C124.49 22.5 125.021 22.3906 125.609 22.3906C126.203 22.3906 126.737 22.5 127.211 22.7188C127.69 22.9323 128.096 23.2344 128.43 23.625C128.768 24.0104 129.026 24.4661 129.203 24.9922C129.38 25.513 129.469 26.0781 129.469 26.6875V26.8672C129.469 27.4766 129.38 28.0417 129.203 28.5625C129.026 29.0833 128.768 29.5391 128.43 29.9297C128.096 30.3151 127.693 30.6172 127.219 30.8359C126.75 31.0495 126.219 31.1562 125.625 31.1562C125.031 31.1562 124.497 31.0495 124.023 30.8359C123.549 30.6172 123.143 30.3151 122.805 29.9297C122.471 29.5391 122.216 29.0833 122.039 28.5625C121.862 28.0417 121.773 27.4766 121.773 26.8672ZM123.219 26.6875V26.8672C123.219 27.2891 123.268 27.6875 123.367 28.0625C123.466 28.4323 123.615 28.7604 123.812 29.0469C124.016 29.3333 124.268 29.5599 124.57 29.7266C124.872 29.888 125.224 29.9688 125.625 29.9688C126.021 29.9688 126.367 29.888 126.664 29.7266C126.966 29.5599 127.216 29.3333 127.414 29.0469C127.612 28.7604 127.76 28.4323 127.859 28.0625C127.964 27.6875 128.016 27.2891 128.016 26.8672V26.6875C128.016 26.2708 127.964 25.8776 127.859 25.5078C127.76 25.1328 127.609 24.8021 127.406 24.5156C127.208 24.224 126.958 23.9948 126.656 23.8281C126.359 23.6615 126.01 23.5781 125.609 23.5781C125.214 23.5781 124.865 23.6615 124.562 23.8281C124.266 23.9948 124.016 24.224 123.812 24.5156C123.615 24.8021 123.466 25.1328 123.367 25.5078C123.268 25.8776 123.219 26.2708 123.219 26.6875ZM134.82 22.5469V23.6562H130.25V22.5469H134.82ZM131.797 20.4922H133.242V28.9062C133.242 29.1927 133.286 29.4089 133.375 29.5547C133.464 29.7005 133.578 29.7969 133.719 29.8438C133.859 29.8906 134.01 29.9141 134.172 29.9141C134.292 29.9141 134.417 29.9036 134.547 29.8828C134.682 29.8568 134.784 29.8359 134.852 29.8203L134.859 31C134.745 31.0365 134.594 31.0703 134.406 31.1016C134.224 31.138 134.003 31.1562 133.742 31.1562C133.388 31.1562 133.062 31.0859 132.766 30.9453C132.469 30.8047 132.232 30.5703 132.055 30.2422C131.883 29.9089 131.797 29.4609 131.797 28.8984V20.4922ZM140.023 31.1562C139.435 31.1562 138.901 31.0573 138.422 30.8594C137.948 30.6562 137.539 30.3724 137.195 30.0078C136.857 29.6432 136.596 29.2109 136.414 28.7109C136.232 28.2109 136.141 27.6641 136.141 27.0703V26.7422C136.141 26.0547 136.242 25.4427 136.445 24.9062C136.648 24.3646 136.924 23.9062 137.273 23.5312C137.622 23.1562 138.018 22.8724 138.461 22.6797C138.904 22.487 139.362 22.3906 139.836 22.3906C140.44 22.3906 140.961 22.4948 141.398 22.7031C141.841 22.9115 142.203 23.2031 142.484 23.5781C142.766 23.9479 142.974 24.3854 143.109 24.8906C143.245 25.3906 143.312 25.9375 143.312 26.5312V27.1797H137V26H141.867V25.8906C141.846 25.5156 141.768 25.151 141.633 24.7969C141.503 24.4427 141.294 24.151 141.008 23.9219C140.721 23.6927 140.331 23.5781 139.836 23.5781C139.508 23.5781 139.206 23.6484 138.93 23.7891C138.654 23.9245 138.417 24.1276 138.219 24.3984C138.021 24.6693 137.867 25 137.758 25.3906C137.648 25.7812 137.594 26.2318 137.594 26.7422V27.0703C137.594 27.4714 137.648 27.849 137.758 28.2031C137.872 28.5521 138.036 28.8594 138.25 29.125C138.469 29.3906 138.732 29.599 139.039 29.75C139.352 29.901 139.706 29.9766 140.102 29.9766C140.612 29.9766 141.044 29.8724 141.398 29.6641C141.753 29.4557 142.062 29.1771 142.328 28.8281L143.203 29.5234C143.021 29.7995 142.789 30.0625 142.508 30.3125C142.227 30.5625 141.88 30.7656 141.469 30.9219C141.062 31.0781 140.581 31.1562 140.023 31.1562Z" fill="white"/>
</svg>
